<svg xmlns="http://www.w3.org/2000/svg" viewBox="0 0 90 90"><defs><style>.cls-1{fill:#ffd900;}.cls-1,.cls-2{fill-rule:evenodd;}.cls-2{fill:#ffa400;}</style></defs><title>flame</title><g id="flame"><path class="cls-1" d="M15.83,57.16a25.85,25.85,0,0,1,4.4-14.79L43.6,5.79a1.73,1.73,0,0,1,2.9,0L69.82,42.37a26.25,26.25,0,0,1,4.34,14.79A26.12,26.12,0,0,1,65.59,76.8,28.48,28.48,0,0,1,45,85a28.6,28.6,0,0,1-20.59-8.2A26.12,26.12,0,0,1,15.83,57.16Z"/><path class="cls-2" d="M44.72,77.82a14.4,14.4,0,0,1-10.32-4.1,13.06,13.06,0,0,1-4.29-9.88,12.84,12.84,0,0,1,2.2-7.39l11-17.26a1.73,1.73,0,0,1,2.9,0l11,17.25A13.44,13.44,0,0,1,55,73.72,14.28,14.28,0,0,1,44.72,77.82Z"/></g></svg>